<svg width="24" height="24" viewBox="0 0 24 24" fill="none" xmlns="http://www.w3.org/2000/svg">
<g clip-path="url(#clip0_2816_359655)">
<path d="M10.9988 18.5825V7.4125L6.11875 12.2925C5.72875 12.6825 5.08875 12.6825 4.69875 12.2925C4.30875 11.9025 4.30875 11.2725 4.69875 10.8825L11.2888 4.2925C11.6788 3.9025 12.3087 3.9025 12.6987 4.2925L19.2888 10.8825C19.6788 11.2725 19.6788 11.9025 19.2888 12.2925C18.8988 12.6825 18.2687 12.6825 17.8787 12.2925L12.9987 7.4125V18.5825C12.9987 19.1325 12.5487 19.5825 11.9988 19.5825C11.4488 19.5825 10.9988 19.1325 10.9988 18.5825Z" fill="#03213E"/>
</g>
<defs>
<clipPath id="clip0_2816_359655">
<rect width="24" height="24" fill="white" transform="matrix(0 -1 1 0 0 24)"/>
</clipPath>
</defs>
</svg>
